<?xml version="1.0" encoding="utf-8"?>
<svg xmlns="http://www.w3.org/2000/svg" viewBox="0 0 100 100">
<rect fill="#333" width="100" height="100"/>
<g fill="#FFF">
<path d="m40 57.8h.6c4.4 0 8.8.1 13.1 0 3.1-.1 5.4 2.1 6 4.9.3 1.3.2 2.6-.3 3.9-.1.3-.3.4-.5.3-.1 0-.2 0-.2 0-13.6 0-27.2 0-40.8 0-2.5 0-4.5-2-4.5-4.5s2-4.6 4.5-4.6h11.2c.3 0 .5-.1.7-.4 3.6-6.3 7.3-12.6 10.9-18.9 1.2-2.1 2.5-4.3 3.7-6.4-.9-1.5-1.8-3.1-2.7-4.6-.7-1.2-1.5-2.5-2.1-3.7-1.1-2.1-.2-4.8 1.8-5.9 2.2-1.2 4.9-.6 6.1 1.5.7 1.2 1.4 2.4 2.1 3.7.3-.6.6-1.1.9-1.6.6-1 1.2-2.1 2-2.9 1.2-1.3 2.9-1.6 4.5-1 1.7.6 2.8 1.8 3 3.7.2 1.1-.1 2.1-.6 3-5.8 9.9-11.6 20-17.4 30-.7 1.2-1.3 2.3-2 3.5z"/>
<path d="m74.9 66.9c1.5 2.6 3 5.2 4.4 7.7 1.2 2 .7 4.5-1.2 5.9-1.7 1.4-4.3 1.2-5.9-.3-.4-.4-.7-.8-.9-1.3-4.9-8.5-9.8-17-14.7-25.5-.9-1.6-2-3.3-2.7-5-1.8-4.3-1.5-8.5 1.2-12.4.3-.5.8-.9 1.2-1.4.5.9 1 1.8 1.5 2.6 3.9 6.7 7.8 13.5 11.7 20.3.2.3.4.4.7.4h11.4c2.5 0 4.5 2 4.5 4.5s-2 4.6-4.4 4.6c-2 0-4 0-6.1 0-.2-.1-.4-.1-.7-.1z"/>
<path d="m32 71.6c-1.5 2.5-2.9 5-4.4 7.5-1.1 1.8-3.1 2.7-5 2.2-2-.5-3.4-2.2-3.5-4.3 0-.9.2-1.7.6-2.5 1-1.8 2-3.5 3.1-5.3.1-.1.2-.3.4-.3 3.3-1 6.5-.2 8.8 2.7z"/>
<rect x="77" y="20" width="6" height="20"/>
<rect x="70" y="27" width="20" height="6"/>
</g>
</svg>
